# xmcd
#
# Track frame offsets: 
#        150
#        15490
#        29088
#        46779
#        64744
#        75886
#        95708
#        109545
#        135878
#        155191
#        181305
#        193328
#
# Disc length: 2814 seconds
#
# Revision: 0
# Processed by: cddbd v1.5.2PL0 Copyright (c) Steve Scherf et al.
# Submitted via: ExactAudioCopy v0.99pb3
#
DISCID=950afc0c
DTITLE=Kipori Woods - Blues Gone Wild
DYEAR=2011
DGENRE=Blues
TTITLE0=Meet Me With Your Black Drawers On
TTITLE1=Ya Mama
TTITLE2=Me And My Baby
TTITLE3=Tip Groove
TTITLE4=Rolling Man
TTITLE5=Play My Axe
TTITLE6=Get on The Floor
TTITLE7=Free Flow
TTITLE8=Full Circle
TTITLE9=Phony People
TTITLE10=Fine Woman
TTITLE11=Back In New Orleans
EXTD=
EXTT0=
EXTT1=
EXTT2=
EXTT3=
EXTT4=
EXTT5=
EXTT6=
EXTT7=
EXTT8=
EXTT9=
EXTT10=
EXTT11=
PLAYORDER=
